<svg xmlns="http://www.w3.org/2000/svg" viewBox="0 0 780.09 614.29"><defs><style>.cls-1{font-size:32.81px;font-family:Helvetica-Bold, Helvetica;}.cls-1,.cls-4,.cls-9{fill:#5252ff;}.cls-1,.cls-4{font-weight:700;}.cls-2{letter-spacing:-0.02em;}.cls-3{letter-spacing:0em;}.cls-4{font-size:132.31px;font-family:MTVGravityGroteskExt-Bold, MTVGravityGroteskExt;}.cls-5{letter-spacing:0.02em;}.cls-6{letter-spacing:0.03em;}.cls-7{letter-spacing:0.03em;}.cls-8{letter-spacing:-0.2em;}.cls-10{fill:#fff;stroke:#5252ff;stroke-miterlimit:10;stroke-width:4.45px;}</style></defs><title>ELEVALOGO</title><g id="Capa_3" data-name="Capa 3"><text class="cls-1" transform="translate(0 598.5) scale(1.34 1)">PLANIFICACIÓN<tspan class="cls-2" x="257.03" y="0" xml:space="preserve"> Y</tspan><tspan class="cls-3" x="286.88" y="0" xml:space="preserve"> ENTRENAMIEN</tspan><tspan class="cls-2" x="536.64" y="0">T</tspan><tspan x="556.1" y="0">O</tspan></text></g><g id="Capa_2" data-name="Capa 2"><text class="cls-4" transform="translate(133.45 112.94)"><tspan class="cls-5">E</tspan><tspan class="cls-6" x="103.99" y="-0.09">L</tspan><tspan class="cls-7" x="200.05" y="-0.15">E</tspan><tspan class="cls-8" x="305.23" y="0.15">V</tspan><tspan x="393.61" y="-0.15">A</tspan></text></g><g id="Capa_1" data-name="Capa 1"><polygon class="cls-9" points="13.47 133.6 8.28 553.09 3.1 133.6 13.47 133.6"/><polygon class="cls-9" points="28.65 133.6 23.46 553.09 18.27 133.6 28.65 133.6"/><polygon class="cls-9" points="44.11 133.6 38.92 553.09 33.73 133.6 44.11 133.6"/><polygon class="cls-9" points="59.28 133.6 54.1 553.09 48.91 133.6 59.28 133.6"/><polygon class="cls-9" points="74.19 133.6 69 553.09 63.81 133.6 74.19 133.6"/><polygon class="cls-9" points="89.36 133.6 84.17 553.09 78.98 133.6 89.36 133.6"/><polygon class="cls-9" points="103.71 133.6 100 553.09 96.29 133.6 103.71 133.6"/><polygon class="cls-9" points="120.36 133.6 115.17 553.09 109.98 133.6 120.36 133.6"/><polygon class="cls-9" points="134.65 133.6 129.46 553.09 124.27 133.6 134.65 133.6"/><polygon class="cls-9" points="149.82 133.6 144.63 553.09 139.44 133.6 149.82 133.6"/><polygon class="cls-9" points="162.98 126.18 159.27 553.09 155.56 126.18 162.98 126.18"/><polygon class="cls-9" points="179.63 126.18 174.44 553.09 169.26 126.18 179.63 126.18"/><polygon class="cls-9" points="195.44 126.18 190.25 553.09 185.06 126.18 195.44 126.18"/><polygon class="cls-9" points="209.87 126.18 205.42 553.09 200.97 126.18 209.87 126.18"/><polygon class="cls-9" points="225.1 157.11 220.06 553.09 215.02 157.11 225.1 157.11"/><polygon class="cls-9" points="240.28 157.11 235.24 553.09 230.19 157.11 240.28 157.11"/><polygon class="cls-9" points="255.14 185.71 250.28 553.09 245.42 185.71 255.14 185.71"/><polygon class="cls-9" points="13.47 133.6 8.28 553.09 3.1 133.6 13.47 133.6"/><polygon class="cls-9" points="28.65 133.6 23.46 553.09 18.27 133.6 28.65 133.6"/><polygon class="cls-9" points="44.11 133.6 38.92 553.09 33.73 133.6 44.11 133.6"/><polygon class="cls-9" points="59.28 133.6 54.1 553.09 48.91 133.6 59.28 133.6"/><polygon class="cls-9" points="74.19 133.6 69 553.09 63.81 133.6 74.19 133.6"/><polygon class="cls-9" points="89.36 133.6 84.17 553.09 78.98 133.6 89.36 133.6"/><polygon class="cls-9" points="103.71 133.6 100 553.09 96.29 133.6 103.71 133.6"/><polygon class="cls-9" points="120.36 133.6 115.17 553.09 109.98 133.6 120.36 133.6"/><polygon class="cls-9" points="134.65 133.6 129.46 553.09 124.27 133.6 134.65 133.6"/><polygon class="cls-9" points="149.82 133.6 144.63 553.09 139.44 133.6 149.82 133.6"/><polygon class="cls-9" points="162.98 126.18 159.27 553.09 155.56 126.18 162.98 126.18"/><polygon class="cls-9" points="179.63 126.18 174.44 553.09 169.26 126.18 179.63 126.18"/><polygon class="cls-9" points="195.44 126.18 190.25 553.09 185.06 126.18 195.44 126.18"/><polygon class="cls-9" points="209.87 126.18 205.42 553.09 200.97 126.18 209.87 126.18"/><polygon class="cls-9" points="225.1 157.11 220.06 553.09 215.02 157.11 225.1 157.11"/><polygon class="cls-9" points="240.28 157.11 235.24 553.09 230.19 157.11 240.28 157.11"/><polygon class="cls-9" points="255.14 185.71 250.28 553.09 245.42 185.71 255.14 185.71"/><polygon class="cls-9" points="270.31 185.71 265.45 553.09 260.6 185.71 270.31 185.71"/><polygon class="cls-9" points="285.92 226.08 281.34 553.09 276.76 226.08 285.92 226.08"/><polygon class="cls-9" points="301.1 226.08 296.51 553.09 291.93 226.08 301.1 226.08"/><polygon class="cls-9" points="315.34 226.08 310.76 553.09 306.18 226.08 315.34 226.08"/><polygon class="cls-9" points="330.79 245.73 325.94 553.09 321.08 245.73 330.79 245.73"/><polygon class="cls-9" points="779.87 125.94 774.68 553.09 769.5 125.94 779.87 125.94"/><polygon class="cls-9" points="764.7 125.94 759.51 553.09 754.32 125.94 764.7 125.94"/><polygon class="cls-9" points="749.24 125.94 744.05 553.09 738.86 125.94 749.24 125.94"/><polygon class="cls-9" points="734.06 125.94 728.87 553.09 723.68 125.94 734.06 125.94"/><polygon class="cls-9" points="719.16 125.94 713.97 553.09 708.78 125.94 719.16 125.94"/><polygon class="cls-9" points="703.99 125.94 698.8 553.09 693.61 125.94 703.99 125.94"/><polygon class="cls-9" points="688.16 125.94 682.97 553.09 677.78 125.94 688.16 125.94"/><polygon class="cls-9" points="672.98 125.94 669.28 553.09 665.57 125.94 672.98 125.94"/><polygon class="cls-9" points="660.23 125.94 654.99 553.09 649.75 125.94 660.23 125.94"/><polygon class="cls-9" points="645.05 125.94 639.82 553.09 634.58 125.94 645.05 125.94"/><polygon class="cls-9" points="628.89 118.38 623.7 553.09 618.51 118.38 628.89 118.38"/><polygon class="cls-9" points="613.76 118.38 608.52 553.09 603.29 118.38 613.76 118.38"/><polygon class="cls-9" points="597.96 118.38 592.72 553.09 587.49 118.38 597.96 118.38"/><polygon class="cls-9" points="582.03 118.38 577.55 553.09 573.06 118.38 582.03 118.38"/><polygon class="cls-9" points="568 149.88 562.91 553.09 557.82 149.88 568 149.88"/><polygon class="cls-9" points="552.82 149.88 547.73 553.09 542.64 149.88 552.82 149.88"/><polygon class="cls-9" points="537.59 178.99 532.69 553.09 527.79 178.99 537.59 178.99"/><polygon class="cls-9" points="344.63 260.06 339.89 553.09 335.15 260.06 344.63 260.06"/><polygon class="cls-9" points="358.01 260.06 353.27 553.09 348.53 260.06 358.01 260.06"/><polygon class="cls-9" points="371.04 260.06 366.29 553.09 361.55 260.06 371.04 260.06"/><polygon class="cls-9" points="383.61 260.06 378.87 553.09 374.13 260.06 383.61 260.06"/><polygon class="cls-9" points="396.99 260.06 392.25 553.09 387.51 260.06 396.99 260.06"/><polygon class="cls-9" points="410.01 260.06 405.27 553.09 400.53 260.06 410.01 260.06"/><polygon class="cls-9" points="422.5 260.06 417.76 553.09 413.01 260.06 422.5 260.06"/><polygon class="cls-9" points="435.88 260.06 431.14 553.09 426.39 260.06 435.88 260.06"/><polygon class="cls-9" points="448.9 260.06 444.16 553.09 439.42 260.06 448.9 260.06"/><polygon class="cls-9" points="461.94 260.06 457.2 553.09 452.46 260.06 461.94 260.06"/><polygon class="cls-9" points="475.32 236.13 470.58 553.09 465.84 236.13 475.32 236.13"/><polygon class="cls-9" points="491.31 226.08 486.57 553.09 481.83 226.08 491.31 226.08"/><polygon class="cls-9" points="522.74 175.84 517.84 549.93 512.94 175.84 522.74 175.84"/><polygon class="cls-9" points="507.1 211.49 502.2 553.09 497.3 211.49 507.1 211.49"/><path class="cls-10" d="M717.42,235.46v-6.53a0,0,0,0,0,0,0H706.6a0,0,0,0,1,0,0c0-1.6-.61-46.23-5-55.86-4.5-9.8-4.24-7.42-11.39-7.42h-17c-.14.06-9.54,4.31-9.54,13s-3.6,50.34-3.71,51.63c0,0,0,0,0,0h-2.3a0,0,0,0,0,0,0v9.18a0,0,0,0,1,0,0H607.77a0,0,0,0,1,0,0c0-.63-.66-8.69-3.93-3.47,0,0-.06,0-.07,0-.34-.62-3.38-5.87-7.36-3.66,0,0,0,0,0,0a4.79,4.79,0,0,0-6.85.25s0,0-.05,0c-.37-.36-5.43-4.95-9.76,3.17,0,0,0,0,0,0a5.71,5.71,0,0,0-5.53,1.33h0l-1.57,2.62,0,0L279.21,242.4h0c-.11-.13-2.19-2.64-5-2.64a6.61,6.61,0,0,1-4.77-2.38s-3.71-4-5.83-3.71c-2,.24-3,2.51-3.16,2.87a0,0,0,0,1-.05,0c-.28-.33-2.3-2.57-5-2.08-2.91.53-2.12,2.65-2.12,2.65s-3.18-1.85-5-.79c-1.47.84-1.44,1.84-1.37,2.22a.1.1,0,0,1-.12.11c-.69-.19-3.34-.83-5.4.32a2.57,2.57,0,0,0-1.33,3.44H194.72s0,0,0,0c0-1.38-.89-41.56-6.62-56.93-5.83-15.63-11.39-13.25-16.16-13.25H154.4c-.16.06-11.13,4.58-11.13,15.1s-3.58,47.18-3.71,48.45a0,0,0,0,1,0,0h-4.95a0,0,0,0,0,0,0v6a0,0,0,0,1,0,0L39.94,243.7s0,0,0,0c-.12.54-2.2,10.25,1.05,17.46a0,0,0,0,0,0,0h98.79s0,0,0,0c.13,1.27,4.83,45.19,9.54,57.2,4.77,12.19,9,12.19,21.2,12.19s18-8.48,21.2-20.14C194.89,299,196,255.2,196,253.82c0,0,0,0,0,0h42.83a0,0,0,0,1,0,0c-.06.62-.66,7.75,2.11,10.54,0,0,0,0,0,0,0,.2-.47,4.57,2.12,7.41s8.74,12.45,10.33,15.37,18,29.67,23.85,35.5c0,0,16.43,15.9,23.85,21.73s10.33,9.54,11.13,13.51,5.83,13.78,11.66,22,13.25,15.37,17.75,18,9,2.12,10.33,9,3.71,26.49,14,53,6.62,30.47,10.86,39.74,11.92,18.81,10.33,21.2-.53,2.91-2.91,1.85-18-14.57-36.83-15.1-24.64.53-31.26,5.83S307,526.69,307.54,532s1.32,9,.53,14.84,2.38,23.05,6.89,36.3,16.14,37,18,45.28c0,0,0,0,0,0-.26.21-4,3.22-3.7,4.76a12.94,12.94,0,0,0,1.58,3.7s0,0,0,0c-.16.3-3.25,6.14-6.35,8.47s1.32,4.5.26,7.42-6.62,7.68-9,10.6-2.12,7.13-.8,10.31c0,0,0,0,0,0-.16.23-3.07,4.52.8,5.55s22,1.59,24.64,1.32,8.74-1.85,9.27-3.71a6.47,6.47,0,0,0,.27-2.87,0,0,0,0,1,0,0c.68-.07,8.49-.84,9.76-1.85s1.59-8.21,1.32-9.27l-.27-1.06s.27-4.24.27-6.09a8.65,8.65,0,0,0-.53-3.18c-.26-1.06-.26-9-.79-10.6s3.17-2.38-4-7.93c0,0,0,0,0,0a104.81,104.81,0,0,0-1.59-17.21c-1.59-8.21-3.44-14-2.65-17.22s6.06-13.46,2.42-26.12c0,0,0-.08.05-.06,1.14.66,13.57,8,21.91,14.79,8.74,7.15,27.82,5.56,34.44,4s25.44-4.24,33.65-2.91,33.12,5.3,42.66,2.91,22.64-9.2,22.78-9.27h0l1.85-2.11s-2.38,8.21,0,13.51,4.5,10.86,3.44,16.69-1.59,20.67-1.59,23.32-1.59,2.12-3.18,5.3a17,17,0,0,0-1.85,7.95c0,2.09.26,4.43.26,4.5s0,0,0,0-1.82,6.33.5,8.72a0,0,0,0,1,0,.05,5.87,5.87,0,0,0-1.3,3.15c0,1.59.26,7.15,2.12,7.95s7.15.26,7.68,2.38.26,5,8.74,5.3,24.11,0,24.91-.26,4-2.91,1.87-5.81c0,0,0,0,0,0,.06-.28,1.8-8.51-1.06-10.86s-11.92-12.72-13.25-15.1-2.91-9.27-2.65-10.6a6.78,6.78,0,0,0-2.36-7.4s0,0,0,0a155.21,155.21,0,0,1,5.83-17.21c4.5-11.66,15.37-37.89,16.69-53.52s3.44-32.85-4.77-39.74-11.39-11.13-21.2-11.39-38.68,8.74-44.25,12.19-4.24.53-4.77-1.32-.27-7.08-.27-7.15h0c0-.1,4.23-13.8,3.45-23.3,0,0,0,0,0,0,.16-.21,6.89-8.92,7.42-23.84h0s-.52-8.23,2.65-15.1,7.15-29.67,7.15-38.42,2.91-9.8,7.95-11.92,19.87-10.33,28.88-28.61,10.07-20.67,14.31-23.85,11.92-12.19,15.37-14.57,9.8-10.33,12.45-14.31,18-30.73,18.55-31.79.53,0,2.38-3.44,10.33-20.4,10.86-23.58c.5-3-.43-9.14-.52-9.75a0,0,0,0,1,0-.05l44.68-.53a0,0,0,0,1,0,0l.76,8.52a0,0,0,0,0,0,0l2.61.4s0,0,0,0c0,1.37,1.61,50.65,3.18,55.88s4,8.74,7.42,8.74h23.85c.09,0,6.36-1.9,6.36-8.21s5.39-52.83,5.56-54.28a0,0,0,0,1,0,0h10.25a0,0,0,0,0,0,0v-6.8a0,0,0,0,1,0,0l97.41.16a0,0,0,0,0,0,0v-17a0,0,0,0,0,0,0H717.46A0,0,0,0,1,717.42,235.46ZM576.86,275.65c-1.06,1.46-9.41,12.58-12.85,14.84s-12.59,9.67-18.81,15.37-13.38,15.5-15.1,18a82.46,82.46,0,0,1-10.73,12.72c-4.49,4.09-19.63,22.78-19.74,22.92h0c-.07,0-2.91,1.91-13.51,6s-24.38,18-25,17.49-7.06-2.34-7.64-2.51a0,0,0,0,1,0-.05,51.65,51.65,0,0,0,2.23-8.44c1.19.66,1.72-.66,2.52-1.72s1.85-5.7,2.25-8.61,2.52-4.5,2.38-8.35a3.72,3.72,0,0,0-3.66-3.84,0,0,0,0,1,0-.06l1.84-5.51c.53-1.59,0-1.59,0-2.38s.53-2.38.27-3.44-1.84-9.75-1.85-9.8h0l-2.12-6.09h0l-1.85-4.36,0,0-2.9-1.71h0l-2.64-2.9h0a22,22,0,0,0-3.71-1.85c-1.59-.53-5-1.58-5-1.59h0l-5-1.06a23.74,23.74,0,0,0-4.24-.53c-1.84,0-4.21-.26-4.24-.26h0l-4-1.06h0a8.89,8.89,0,0,0-3.71.79c-1.32.79-2.91.53-5,1.32s-4,1.85-6.36,2.65a4.4,4.4,0,0,0-2.91,2.65h0a47.26,47.26,0,0,0-3.71,3.58,37.9,37.9,0,0,1-2.91,2.78c-1.06,1.06-3.18,9.27-3.44,11.66s-.79,9.15-.79,9.27h0a29,29,0,0,1,.79,2.91,17,17,0,0,0,1.32,4.5,17.26,17.26,0,0,1,1.06,4.77c-3.44-2.65-4.24.79-1.59,6.09s1.85,6.09,3.71,11.13,4,2.91,4,2.91l1.58,6.31a0,0,0,0,1,0,.05L396.06,382h0c-.17-.23-2.18-2.77-13.76-10.58-12.19-8.21-22.52-9-23.32-9.8s-23.32-27-26-28.61-9.27-10.33-12.45-16.16S303,298,295.35,294.59,283.43,287.7,280,284s-13-19.67-13.24-20.13c0,0,0,0,0,0a16.13,16.13,0,0,1,3.44-4c2.65-2.38,6.09-6.36,6.09-6.36l.79-.79,297.51-3.84h0l3.7,5.55c1.25,1.88,6.32,3.65,6.84,3.83a0,0,0,0,1,0,.06C584.76,259.27,577.89,274.24,576.86,275.65Z" transform="translate(-36.26 -127.61)"/></g></svg>